# xmcd CD database file
#
# Track frame offsets:
#	150
#	18988
#	31745
#	43079
#	57125
#	71187
#	87429
#	102897
#	120644
#	138826
#	152486
#	166489
#	181785
#	193212
#	209727
#
# Disc length: 2950 seconds
#
# Revision: 3
# Processed by: cddbd v1.5.2PL0 Copyright (c) Steve Scherf et al.
# Submitted via: CDex 1.51
#
DISCID=cd0b840f
DTITLE=Various Artist - Classic Country - Great Duets - CD1
DYEAR=1900
DGENRE=Country
TTITLE0=Kenny Rogers and Dolly Parton - Islands In The Stream
TTITLE1=Johnny Cash and June Carter - Jackson
TTITLE2=Loretta Lynn and Conway Twitty - Lousianna Woman, Mississippi Man
TTITLE3=Chalie Rich and Janie Frickie - On My Knees
TTITLE4=George Jones and Tammy Wynette - Golden Ring
TTITLE5=Earl Thomas Conley and Emmylou Harris - We Believe In Happy Endings
TTITLE6=David Frizzell and Shelly West - You're The Reason God Made Oklahoma
TTITLE7=Marie Osmond and Dan Seals - Meet Me In Montana
TTITLE8=Eddie Rabbit and Crystal Gayle - You And I
TTITLE9=Charly Mcclain and Mickey Gilley - Paradise Tonight
TTITLE10=Dottie West and Kenny Rogers - What Are We Doin' In Love
TTITLE11=Hoyt Axton and Linda Ronstadt - Lion In The Winter
TTITLE12=Porter Wagoner and Dolly Parton - Holding On To Nothin'
TTITLE13=Merle Haggard and Janie Fricke - A Place To Fall Apart
TTITLE14=Glen Campbell and Bobbie Gentry - All I Have To Do Is Dream
EXTD=
EXTT0=
EXTT1=
EXTT2=
EXTT3=
EXTT4=
EXTT5=
EXTT6=
EXTT7=
EXTT8=
EXTT9=
EXTT10=
EXTT11=
EXTT12=
EXTT13=
EXTT14=
PLAYORDER=
